<?xml version="1.0" encoding="utf-8"?>
<!-- Generator: Adobe Illustrator 23.0.0, SVG Export Plug-In . SVG Version: 6.00 Build 0)  -->
<svg version="1.1" id="Layer_1" xmlns="http://www.w3.org/2000/svg" xmlns:xlink="http://www.w3.org/1999/xlink" x="0px" y="0px"
	 viewBox="0 0 936 648" style="enable-background:new 0 0 936 648;" xml:space="preserve">
<style type="text/css">
	.st0{clip-path:url(#SVGID_2_);}
	.st1{clip-path:url(#SVGID_4_);fill:#140227;}
	.st2{clip-path:url(#SVGID_6_);fill:none;stroke:#FFFFFF;stroke-width:1.243;stroke-miterlimit:10;}
	.st3{clip-path:url(#SVGID_8_);fill:none;stroke:#FFFFFF;stroke-width:1.243;stroke-linejoin:round;stroke-miterlimit:10;}
	.st4{clip-path:url(#SVGID_10_);fill:none;stroke:#FFFFFF;stroke-width:1.243;stroke-miterlimit:10;}
	.st5{clip-path:url(#SVGID_12_);fill:none;stroke:#FFFFFF;stroke-width:1.243;stroke-linejoin:round;stroke-miterlimit:10;}
	.st6{fill:none;stroke:#FFFFFF;stroke-width:0.75;stroke-miterlimit:10;}
	.st7{fill:none;}
	.st8{fill:#FFFFFF;}
	.st9{font-family:'ArialMT';}
	.st10{font-size:21.4775px;}
</style>
<g>
	<g>
		<g>
			<defs>
				<rect id="SVGID_1_" x="269.6" y="106.1" width="417.5" height="417.5"/>
			</defs>
			<clipPath id="SVGID_2_">
				<use xlink:href="#SVGID_1_"  style="overflow:visible;"/>
			</clipPath>
			<g class="st0">
				<g>
					<g>
						<defs>
							<rect id="SVGID_3_" x="250.3" y="91.1" width="456.2" height="434.7"/>
						</defs>
						<clipPath id="SVGID_4_">
							<use xlink:href="#SVGID_3_"  style="overflow:visible;"/>
						</clipPath>
						<path class="st1" d="M478.4,523.6c115.3,0,208.8-93.4,208.8-208.8s-93.4-208.8-208.8-208.8s-208.8,93.4-208.8,208.8
							C269.6,430.2,363,523.6,478.4,523.6"/>
					</g>
				</g>
			</g>
		</g>
		<g>
			<defs>
				<rect id="SVGID_5_" x="269.6" y="106.1" width="417.5" height="417.5"/>
			</defs>
			<clipPath id="SVGID_6_">
				<use xlink:href="#SVGID_5_"  style="overflow:visible;"/>
			</clipPath>
			<path class="st2" d="M300.3,421.2c-18.7-31.1-29.4-67.4-29.4-106.3c0-24.9,4.5-49,12.5-71.1 M300.3,421.2
				c36.3,60.6,102.4,100.9,178,100.9c9.2,0,18-0.6,26.8-1.7l-26.8-205.5L300.3,421.2z M505.2,520.4L505.2,520.4
				c-8.8,1.1-17.8,1.7-26.8,1.7c-75.6,0-141.8-40.6-178-100.9 M505.2,520.4C607,507.3,685.6,420.1,685.6,314.9
				c0-114.5-92.8-207.5-207.5-207.5v207.5L505.2,520.4z M478.4,107.4c-39.5,0-76.2,11-107.8,30.1l107.8,177.2V107.4z"/>
		</g>
		<g>
			<defs>
				<rect id="SVGID_7_" x="269.6" y="106.1" width="417.5" height="417.5"/>
			</defs>
			<clipPath id="SVGID_8_">
				<use xlink:href="#SVGID_7_"  style="overflow:visible;"/>
			</clipPath>
			<path class="st3" d="M283.3,243.8c-8.2,22.1-12.5,46.2-12.5,71.1c0,38.9,10.7,75.2,29.4,106.3l178-106.3L283.3,243.8z"/>
		</g>
		<g>
			<defs>
				<rect id="SVGID_9_" x="269.6" y="106.1" width="417.5" height="417.5"/>
			</defs>
			<clipPath id="SVGID_10_">
				<use xlink:href="#SVGID_9_"  style="overflow:visible;"/>
			</clipPath>
			<path class="st4" d="M283.3,243.8c16.3-44.5,47.3-81.8,87.2-106.1"/>
		</g>
		<g>
			<defs>
				<rect id="SVGID_11_" x="269.6" y="106.1" width="417.5" height="417.5"/>
			</defs>
			<clipPath id="SVGID_12_">
				<use xlink:href="#SVGID_11_"  style="overflow:visible;"/>
			</clipPath>
			<path class="st5" d="M283.3,243.8l194.8,71.1L370.3,137.7C330.8,162,299.7,199.3,283.3,243.8z"/>
		</g>
	</g>
	<polyline class="st6" points="658.8,210.5 712.9,177 776.3,177 	"/>
	<polyline class="st6" points="420.2,113.6 403.4,93 347.3,93 	"/>
	<polyline class="st6" points="319.6,181.5 295.2,146.9 222.6,146.9 	"/>
	<line class="st6" x1="271.1" y1="339.1" x2="192.7" y2="339.1"/>
	<polyline class="st6" points="383.9,499.4 347.3,525.8 269.6,523.6 	"/>
	<rect x="782.7" y="167.5" class="st7" width="143.5" height="58"/>
	<text transform="matrix(1 0 0 1 782.6909 182.757)" class="st8 st9 st10">48%  Design &amp; </text>
	<text transform="matrix(1 0 0 1 782.6909 208.5304)" class="st8 st9 st10">Composition</text>
	<rect x="138.4" y="513.5" class="st7" width="143.5" height="50.7"/>
	<text transform="matrix(1 0 0 1 138.4331 528.6808)" class="st8 st9 st10">14%  Software </text>
	<text transform="matrix(1 0 0 1 138.4331 554.4532)" class="st8 st9 st10">Development</text>
	<rect x="9.9" y="328.8" class="st7" width="193.9" height="50.7"/>
	<text transform="matrix(1 0 0 1 9.8364 344.1525)" class="st8 st9 st10">10%  Uncategorized</text>
	<rect x="40.9" y="138.8" class="st7" width="190.9" height="86.6"/>
	<text transform="matrix(1 0 0 1 40.8726 154.0988)" class="st8 st9 st10">8%  Communication </text>
	<text transform="matrix(1 0 0 1 40.8726 179.8712)" class="st8 st9 st10">&amp; Scheduling</text>
	<rect x="200.4" y="83.8" class="st7" width="163" height="86.6"/>
	<text transform="matrix(1 0 0 1 200.4507 98.9865)" class="st8 st9 st10">7%  Reference &amp; </text>
	<text transform="matrix(1 0 0 1 200.4507 124.7599)" class="st8 st9 st10">Learning</text>
</g>
</svg>
