<?xml version="1.0" encoding="utf-8"?>
<!-- Generator: Adobe Illustrator 23.0.0, SVG Export Plug-In . SVG Version: 6.00 Build 0)  -->
<svg version="1.1" id="Layer_1" xmlns="http://www.w3.org/2000/svg" xmlns:xlink="http://www.w3.org/1999/xlink" x="0px" y="0px"
	 viewBox="0 0 936 648" style="enable-background:new 0 0 936 648;" xml:space="preserve">
<style type="text/css">
	.st0{fill:#192871;}
	.st1{fill:none;stroke:#FFFFFF;stroke-width:2;stroke-miterlimit:10;}
	.st2{fill:none;}
	.st3{fill:#FFFFFF;}
	.st4{font-family:'ArialMT';}
	.st5{font-size:44.7203px;}
	.st6{letter-spacing:62;}
	.st7{letter-spacing:29;}
	.st8{letter-spacing:3;}
	.st9{letter-spacing:52;}
	.st10{letter-spacing:23;}
	.st11{font-family:'Helvetica-Bold';}
	.st12{font-size:28.9367px;}
	.st13{clip-path:url(#SVGID_2_);}
	.st14{font-family:'Helvetica';}
	.st15{font-size:52.6122px;}
</style>
<g>
	<rect y="15.4" class="st0" width="936" height="617.3"/>
	<polyline class="st1" points="25.8,466.8 858.1,469.5 908.3,469.5 	"/>
	<polygon class="st1" points="855.4,469.5 855.4,263.1 765.6,263.1 765.6,466.8 732.9,466.8 732.9,70.8 641.7,70.8 641.7,466.8 
		614.6,466.8 614.6,398.5 524.8,398.5 524.8,466.8 375.2,466.8 375.2,193.4 287,193.4 287,466.8 	"/>
	<rect x="79.6" y="493.3" class="st2" width="818.1" height="52.8"/>
	<text transform="matrix(1 0 0 1 79.5244 525.1774)" class="st3 st4 st5">S</text>
	<text transform="matrix(1 0 0 1 101.6533 525.1774)" class="st3 st4 st5 st6"> </text>
	<text transform="matrix(1 0 0 1 174.313 525.1774)" class="st3 st4 st5">  M</text>
	<text transform="matrix(1 0 0 1 229.1392 525.1774)" class="st3 st4 st5 st7"> </text>
	<text transform="matrix(1 0 0 1 268.7725 525.1774)" class="st3 st4 st5">      T</text>
	<text transform="matrix(1 0 0 1 348.0381 525.1774)" class="st3 st4 st5 st8"> </text>
	<text transform="matrix(1 0 0 1 363.561 525.1774)" class="st3 st4 st5">       W          T</text>
	<text transform="matrix(1 0 0 1 584.8457 525.1774)" class="st3 st4 st5 st9"> </text>
	<text transform="matrix(1 0 0 1 647.5986 525.1774)" class="st3 st4 st5">    F</text>
	<text transform="matrix(1 0 0 1 707.3789 525.1774)" class="st3 st4 st5 st10"> </text>
	<text transform="matrix(1 0 0 1 742.3877 525.1774)" class="st3 st4 st5">     S</text>
	<text transform="matrix(1 0 0 1 39.5854 457.6686)" class="st3 st11 st12">20m 3s</text>
	<text transform="matrix(1 0 0 1 161.7397 457.6686)" class="st3 st11 st12">2m 54s</text>
	<text transform="matrix(1 0 0 1 391.8447 457.6725)" class="st3 st11 st12">55m 51s </text>
	<text transform="matrix(1 0 0 1 525.9062 387.5407)" class="st3 st11 st12">3h 2m</text>
	<text transform="matrix(1 0 0 1 630.9316 60.2614)" class="st3 st11 st12">5h 27m</text>
	<text transform="matrix(1 0 0 1 761.9766 249.4005)" class="st3 st11 st12">2h 44m</text>
	<g>
		<g>
			<defs>
				<rect id="SVGID_1_" x="399" y="41.4" width="536" height="590.9"/>
			</defs>
			<clipPath id="SVGID_2_">
				<use xlink:href="#SVGID_1_"  style="overflow:visible;"/>
			</clipPath>
			<g class="st13">
				<text transform="matrix(1 0 0 1 480.6318 592.5358)" class="st3 st14 st15">16h </text>
				<text transform="matrix(1 0 0 1 583.0176 592.5358)" class="st3 st4 st15">52m</text>
			</g>
		</g>
	</g>
	<text transform="matrix(1 0 0 1 281.7368 185.6471)" class="st3 st11 st12">4h 18m</text>
	<rect x="219.3" y="556" class="st2" width="293.3" height="50.9"/>
	<text transform="matrix(1 0 0 1 219.2051 593.3912)" class="st3 st4 st15">Total Time:</text>
</g>
</svg>
