<?xml version="1.0" encoding="utf-8"?>
<!-- Generator: Adobe Illustrator 21.1.0, SVG Export Plug-In . SVG Version: 6.00 Build 0)  -->
<svg version="1.1" id="Layer_1" xmlns="http://www.w3.org/2000/svg" xmlns:xlink="http://www.w3.org/1999/xlink" x="0px" y="0px"
	 viewBox="0 0 936 648" style="enable-background:new 0 0 936 648;" xml:space="preserve">
<style type="text/css">
	.st0{fill:#25408F;}
	.st1{fill:none;stroke:#FFFFFF;stroke-width:2;stroke-miterlimit:10;}
	.st2{fill:none;}
	.st3{fill:#FFFFFF;}
	.st4{font-family:'MyriadPro-Regular';}
	.st5{font-size:13.5403px;}
	.st6{letter-spacing:19;}
	.st7{letter-spacing:9;}
	.st8{letter-spacing:1;}
	.st9{letter-spacing:16;}
	.st10{letter-spacing:7;}
	.st11{font-family:'Helvetica-Bold';}
	.st12{font-size:8.7614px;}
	.st13{clip-path:url(#SVGID_2_);}
	.st14{font-family:'Helvetica';}
	.st15{font-size:15.9298px;}
</style>
<g>
	<rect x="326.8" y="231.1" class="st0" width="283.4" height="186.9"/>
	<polyline class="st1" points="334.6,367.8 586.6,368.6 601.8,368.6 	"/>
	<polygon class="st1" points="585.8,368.6 585.8,306.1 558.6,306.1 558.6,367.8 548.7,367.8 548.7,247.9 521.1,247.9 521.1,367.8 
		512.9,367.8 512.9,347.1 485.7,347.1 485.7,367.8 440.4,367.8 440.4,285 413.7,285 413.7,367.8 	"/>
	<rect x="350.9" y="375.8" class="st2" width="247.7" height="16"/>
	<text transform="matrix(1 0 0 1 350.8788 385.4624)"><tspan x="0" y="0" class="st3 st4 st5">S</tspan><tspan x="6.7" y="0" class="st3 st4 st5 st6">	</tspan><tspan x="28.7" y="0" class="st3 st4 st5">  M</tspan><tspan x="45.3" y="0" class="st3 st4 st5 st7">	</tspan><tspan x="57.3" y="0" class="st3 st4 st5">      T</tspan><tspan x="81.3" y="0" class="st3 st4 st5 st8">	</tspan><tspan x="86" y="0" class="st3 st4 st5">       W          T</tspan><tspan x="153" y="0" class="st3 st4 st5 st9">	</tspan><tspan x="172" y="0" class="st3 st4 st5">    F</tspan><tspan x="190.1" y="0" class="st3 st4 st5 st10">	</tspan><tspan x="200.7" y="0" class="st3 st4 st5">     S</tspan></text>
	<text transform="matrix(1 0 0 1 338.7861 365.022)" class="st3 st11 st12">20m 3s</text>
	<text transform="matrix(1 0 0 1 375.7719 365.022)" class="st3 st11 st12">2m 54s</text>
	<text transform="matrix(1 0 0 1 445.4423 365.023)" class="st3 st11 st12">55m 51s </text>
	<text transform="matrix(1 0 0 1 486.0331 343.7886)" class="st3 st11 st12">3h 2m</text>
	<text transform="matrix(1 0 0 1 517.8325 244.6958)" class="st3 st11 st12">5h 27m</text>
	<text transform="matrix(1 0 0 1 557.5097 301.9634)" class="st3 st11 st12">2h 44m</text>
	<g>
		<defs>
			<rect id="SVGID_1_" x="447.6" y="239" width="162.3" height="178.9"/>
		</defs>
		<clipPath id="SVGID_2_">
			<use xlink:href="#SVGID_1_"  style="overflow:visible;"/>
		</clipPath>
		<g class="st13">
			<text transform="matrix(1 0 0 1 472.3251 405.857)"><tspan x="0" y="0" class="st3 st14 st15">16h </tspan><tspan x="31" y="0" class="st3 st4 st15">52m</tspan></text>
		</g>
	</g>
	<text transform="matrix(1 0 0 1 412.1044 282.6597)" class="st3 st11 st12">4h 18m</text>
	<rect x="393.2" y="394.8" class="st2" width="88.8" height="15.4"/>
	<text transform="matrix(1 0 0 1 393.1708 406.1158)" class="st3 st4 st15">Total Time:</text>
</g>
</svg>
